<svg xmlns="http://www.w3.org/2000/svg" viewBox="0 0 372 94" enable-background="new 0 0 372 94"><path fill="#FFFFFF" d="M369.7 0h-65.7c-1.3 0-2.3 1.1-2.3 2.3v65.7c0 1.3 1.1 2.3 2.3 2.3h65.6c1.3 0 2.3-1.1 2.3-2.3v-65.7c.1-1.2-1-2.3-2.2-2.3zm-2.4 65.7h-61v-61h61v61zm-46.7-35.1c.8-.5 1.5-.9 2.1-1.4v21.5h5.1v-30.3h-3.5l-.2.4c-.6 1.1-1.5 2.4-2.9 3.6-1.4 1.3-3.1 2.4-5 3.2l-.4.2v5l1.1-.4c1-.3 2.3-.9 3.7-1.8zm36.5 15.2h-13.3l.5-.6c.4-.4 1.4-1.4 4-3.6s4.4-3.9 5.5-5.1c1.1-1.3 2-2.5 2.5-3.7.5-1.2.8-2.4.8-3.7 0-2.5-.9-4.5-2.6-6.2-1.7-1.7-4.1-2.5-7.1-2.5-2.9 0-5.3.8-7 2.3-1.8 1.5-2.8 3.8-3 6.7l-.1.8 5.2.5v-.9c0-1.6.4-2.8 1.3-3.7.9-.9 2-1.3 3.5-1.3 1.4 0 2.5.4 3.4 1.2.8.8 1.2 1.8 1.2 3s-.5 2.4-1.5 3.8c-1.1 1.4-3.1 3.4-6.2 5.9-2 1.7-3.6 3.2-4.7 4.4-1.1 1.3-1.9 2.7-2.5 4-.3.9-.5 1.8-.5 2.7v.8h20.5v-4.8zm-76.6 14.3c.9 0 1.6-.7 1.6-1.6v-46.7c0-.9-.7-1.6-1.6-1.6h-2.2c-.9 0-1.6.7-1.6 1.6v24.8c0 4.7 0 8.6.1 12.5-1.5-2.4-3.1-5-5.2-8.2l-19.9-30c-.3-.4-.8-.7-1.3-.7h-2c-.9 0-1.6.7-1.6 1.6v46.8c0 .9.7 1.6 1.6 1.6h2.2c.9 0 1.6-.7 1.6-1.6v-25.2c0-5.8 0-9.3-.1-12.1 1.4 2.3 2.9 4.6 4.5 7.1l20.4 31c.3.4.8.7 1.3.7h2.2zm-65.2-50.7c-13.3 0-22.3 10.6-22.3 26.2 0 14.9 9 25.3 21.8 25.3 10.7 0 22.1-8.2 22.1-26.2 0-15.1-8.7-25.3-21.6-25.3zm-.5 46.6c-11.3 0-16.4-11.9-16.4-20.4 0-10.6 5.2-21.2 16.8-21.2 11.2 0 16.3 10.6 16.3 20.5 0 10.1-5.2 21.1-16.7 21.1zm-42.4 4.8c5.3 0 10.3-1 13.5-2.6.4-.2.6-.5.8-.9.1-.4.1-.8-.1-1.2l-.9-1.7c-.4-.8-1.3-1.1-2.1-.7-2.6 1.3-6.3 2.1-10.1 2.1-11.9 0-19-7.6-19-20.3 0-13.1 7.6-21.3 19.8-21.3 3.4 0 6.5.7 9 1.9.4.2.8.2 1.2.1.4-.1.7-.4.9-.8l.9-1.8c.4-.8.1-1.7-.7-2.1-2.9-1.4-6.8-2.2-11.4-2.2-15 0-25.1 10.4-25.1 25.9-.1 19 12.5 25.6 23.3 25.6zm-35.6-26.8h-13.6c-1.1 0-2 .9-2 2v1.9c0 1.1.9 2 2 2h9.4v14.3c-2.1.8-4.9 1.2-8.5 1.2-13.9 0-18.9-10.8-18.9-20.1 0-12.3 7.7-20.3 19.7-20.3 4.3 0 6.9.9 9 1.9 1 .4 2.1 0 2.5-.9l.9-1.7c.2-.5.3-1 .1-1.5-.2-.5-.5-.9-1-1.1-2.2-1-6.5-2.2-11.4-2.2-18 0-26 13-26 26 0 15.7 9.6 25.8 24.5 25.8 6.3 0 11.1-1.5 14.1-2.7.7-.3 1.2-1 1.2-1.8v-20.9c-.1-1-1-1.9-2-1.9zm-57.6-2.7c-7.2-2.9-8.6-5.5-8.6-9.3 0-.7.2-7.2 8.8-7.2 4.2 0 6.4 1.6 6.6 1.8.4.3 1 .5 1.5.4.5-.1 1-.4 1.3-.9l1.1-1.7c.6-.9.3-2-.5-2.6-1.8-1.3-5.3-2.7-10.1-2.7-8.7 0-15 5.7-15 13.5 0 6.7 4.3 11.5 13.2 14.7 6.9 2.7 8.3 5.7 8.3 9.7 0 5.2-3.9 8.6-9.9 8.6-3.9 0-7-1.5-8.8-2.8-.4-.3-1-.4-1.5-.3-.5.1-1 .4-1.3.9l-.9 1.6c-.6.9-.3 2 .5 2.6 2.9 2.1 7.7 3.5 12.1 3.5 11.1 0 16.2-7.5 16.2-14.5 0-8.3-5.2-12.1-13-15.3zm-25.6-19.5c0-1.1-.9-2-2-2h-2.2c-1.1 0-2 .9-2 2v46.8c0 1.1.9 2 2 2h2.2c1.1 0 2-.9 2-2v-46.8zm-36.6 49.5c11.3 0 18.1-8 18.1-21.3v-28.2c0-1.1-.9-2-2-2h-2.1c-1.1 0-2 .9-2 2v28.2c0 10-4.2 15.5-11.8 15.5-7.2.1-11.1-5.4-11.1-15.5v-28.2c0-1.1-.9-2-2-2h-2.1c-1.1 0-2 .9-2 2v28.8c0 12.9 6.4 20.7 17 20.7zm-14.9 26.6h1.9v6h1v-6h1.9v-.9h-4.8v.9zm10.7 2h-2.8v-2.9h-1v6.9h1v-3.1h2.8v3.1h1v-6.9h-1v2.9zm4.7.9h2.4v-.9h-2.4v-2h2.6v-.9h-3.6v6.9h3.7v-.9h-2.7v-2.2zm7.3-2.9h1.9v6h1v-6h1.9v-.9h-4.8v.9zm12.7 2.4l-.5 2.4-.4-2.4-.7-3.3h-1l-.9 3.3c-.2.9-.4 1.7-.5 2.4-.1-.7-.3-1.6-.4-2.4l-.7-3.3h-1.1l1.6 6.9h1.1l.8-3.3c.2-.8.4-1.5.5-2.2.1.7.2 1.4.4 2.2l.7 3.3h1.1l1.8-6.9h-1.1l-.7 3.3zm4.9.5h2.4v-.9h-2.4v-2h2.6v-.9h-3.6v6.9h3.7v-.9h-2.7v-2.2zm6-3.8h-1v6.9h3.6v-.9h-2.7v-6zm4.8 6.9h1v-3h2.4v-.9h-2.4v-2.1h2.5v-.9h-3.6v6.9zm5.4-6h1.9v6h1v-6h1.9v-.9h-4.8v.9zm10.7 2h-2.8v-2.9h-1v6.9h1v-3.1h2.8v3.1h1v-6.9h-1v2.9zm11.5-2.9h-1v4.2c0 1.4-.5 2-1.4 2-.8 0-1.4-.6-1.4-2v-4.2h-1v4.1c0 2.1 1 2.9 2.4 2.9 1.5 0 2.5-.9 2.5-2.9v-4.1zm7.2 0h-1.3l-1.7 2.5c-.2.2-.3.5-.5.8v-3.3h-1v6.9h1v-2.5l.6-.7 1.9 3.2h1.2l-2.5-3.9 2.3-3zm5.1 3.6c.7-.3 1.2-.9 1.2-1.8 0-.6-.2-1-.5-1.3-.4-.4-1.1-.6-2-.6-.6 0-1.2.1-1.7.1v6.8h1v-2.8h.6c.7 0 1.1.4 1.3 1.3.2.8.3 1.4.4 1.6h1.1c-.1-.3-.3-1-.5-1.9-.1-.7-.4-1.2-.9-1.4zm-1.2-.4h-.7v-2.4c.1 0 .4-.1.7-.1.7 0 1.4.3 1.4 1.2 0 .8-.6 1.3-1.4 1.3zm6.6-3.2l-2.1 6.9h1.1l.6-2h2.1l.6 2h1.1l-2.1-6.9h-1.3zm-.3 4.1l.5-1.8.3-1.3c.1.4.2.9.3 1.4l.5 1.8h-1.6zm5.8 2.8h1v-6.9h-1v6.9zm7.7-4.3c0 1.1 0 2 .1 2.9-.3-.7-.7-1.5-1.1-2.3l-1.8-3.2h-1.1v6.9h1v-2.6c0-1.2 0-2.1-.1-3 .3.8.7 1.6 1.1 2.3l1.8 3.2h1.1v-6.8h-1v2.6zm3.6 4.3h1v-6.9h-1v6.9zm5.3-6.9l-2.1 6.9h1.1l.6-2h2.1l.6 2h1.1l-2.1-6.9h-1.3zm-.3 4.1l.5-1.8.3-1.3c.1.4.2.9.3 1.4l.5 1.8h-1.6zm9.8-1.5c0 1.1 0 2 .1 2.9-.3-.7-.7-1.5-1.1-2.3l-1.8-3.2h-1.1v6.9h1v-2.6c0-1.2 0-2.1-.1-3 .3.8.7 1.6 1.1 2.3l1.8 3.2h1.1v-6.8h-1v2.6zm6.5 4.3h1v-6.9h-1v6.9zm7.7-4.3c0 1.1 0 2 .1 2.9-.3-.7-.7-1.5-1.1-2.3l-1.8-3.2h-1.1v6.9h1v-2.6c0-1.2 0-2.1-.1-3 .3.8.7 1.6 1.1 2.3l1.8 3.2h1.1v-6.8h-1v2.6zm3.6 4.3h1v-3h2.4v-.9h-2.4v-2.1h2.5v-.9h-3.6v6.9zm8.5-7c-1.8 0-3 1.4-3 3.6 0 2.1 1.1 3.5 2.9 3.5 1.7 0 3-1.2 3-3.6 0-2-1.1-3.5-2.9-3.5zm0 6.3c-1.2 0-1.8-1.3-1.8-2.7 0-1.3.6-2.7 1.8-2.7 1.2 0 1.8 1.3 1.8 2.7 0 1.4-.6 2.7-1.8 2.7zm8.2-2.6c.7-.3 1.2-.9 1.2-1.8 0-.6-.2-1-.5-1.3-.4-.4-1.1-.6-2-.6-.6 0-1.2.1-1.7.1v6.8h1v-2.8h.6c.7 0 1.1.4 1.3 1.3.2.8.3 1.4.4 1.6h1.1c-.1-.3-.3-1-.5-1.9-.1-.7-.4-1.2-.9-1.4zm-1.2-.4h-.7v-2.4c.1 0 .4-.1.7-.1.7 0 1.4.3 1.4 1.2 0 .8-.6 1.3-1.4 1.3zm9.7-3.2l-1 3c-.3.9-.5 1.6-.7 2.4-.2-.8-.4-1.5-.6-2.4l-1-3h-1.3l-.5 6.9h1l.2-2.8c.1-1 .1-2.1.1-2.9.2.8.4 1.7.7 2.6l.9 3.1h.8l1-3.1c.3-.9.6-1.8.8-2.6 0 .9 0 1.9.1 2.8l.2 2.9h1l-.4-6.9h-1.3zm5.9 0l-2.1 6.9h1.1l.6-2h2.1l.6 2h1.1l-2.1-6.9h-1.3zm-.3 4.1l.5-1.8.3-1.3c.1.4.2.9.3 1.4l.5 1.8h-1.6zm4.6-3.2h1.9v6h1v-6h1.9v-.9h-4.8v.9zm6.8 6h1v-6.9h-1v6.9zm6.4-7c-1.8 0-3 1.4-3 3.6 0 2.1 1.1 3.5 2.9 3.5 1.7 0 3-1.2 3-3.6-.1-2-1.1-3.5-2.9-3.5zm-.1 6.3c-1.2 0-1.8-1.3-1.8-2.7 0-1.3.6-2.7 1.8-2.7 1.2 0 1.8 1.3 1.8 2.7 0 1.4-.6 2.7-1.8 2.7zm9.2-3.6c0 1.1 0 2 .1 2.9-.3-.7-.7-1.5-1.1-2.3l-1.8-3.2h-1.1v6.9h1v-2.6c0-1.2 0-2.1-.1-3 .3.8.7 1.6 1.1 2.3l1.8 3.2h1.1v-6.8h-1v2.6zm8.7.4c-.9-.4-1.3-.7-1.3-1.3 0-.4.3-.9 1.2-.9.6 0 1 .2 1.2.3l.3-.9c-.3-.2-.8-.3-1.4-.3-1.4 0-2.2.8-2.2 1.9 0 .9.7 1.6 1.7 2 .8.3 1.2.7 1.2 1.3 0 .6-.5 1-1.3 1-.6 0-1.1-.2-1.5-.4l-.2.9c.3.2 1 .4 1.7.4 1.5 0 2.4-.9 2.4-2-.2-1-.7-1.6-1.8-2zm4.9.8h2.4v-.9h-2.4v-2h2.6v-.9h-3.6v6.9h3.7v-.9h-2.7v-2.2zm8-3c.5 0 .9.1 1.2.3l.2-.9c-.2-.1-.7-.3-1.5-.3-1.9 0-3.4 1.3-3.4 3.6 0 2.2 1.3 3.5 3.2 3.5.7 0 1.3-.1 1.6-.3l-.2-.8c-.3.1-.8.2-1.2.2-1.4 0-2.3-.9-2.3-2.6.1-1.8 1.1-2.7 2.4-2.7zm8.5-.8h-1v4.2c0 1.4-.5 2-1.4 2-.8 0-1.4-.6-1.4-2v-4.2h-1v4.1c0 2.1 1 2.9 2.4 2.9 1.5 0 2.5-.9 2.5-2.9v-4.1zm5.5 3.6c.7-.3 1.2-.9 1.2-1.8 0-.6-.2-1-.5-1.3-.4-.4-1.1-.6-2-.6-.6 0-1.2.1-1.7.1v6.8h1v-2.8h.6c.7 0 1.1.4 1.3 1.3.2.8.3 1.4.4 1.6h1.1c-.1-.3-.3-1-.5-1.9-.1-.7-.4-1.2-.9-1.4zm-1.2-.4h-.7v-2.4c.1 0 .4-.1.7-.1.7 0 1.4.3 1.4 1.2 0 .8-.5 1.3-1.4 1.3zm4.9 3.7h1v-6.9h-1v6.9zm3.1-6h1.9v6h1v-6h1.9v-.9h-4.8v.9zm9.6.9c-.2.5-.4 1-.6 1.4l-.6-1.4-.8-1.8h-1.2l2 4v2.9h1v-2.9l2.1-4h-1.2l-.7 1.8zm11.9 1.4h-2.2v.8h1.2v2c-.2.1-.5.1-.9.1-1.4 0-2.3-.9-2.3-2.7 0-1.7 1-2.6 2.4-2.6.6 0 1 .1 1.4.3l.2-.9c-.3-.2-.9-.3-1.6-.3-2.1 0-3.5 1.3-3.5 3.6 0 1.1.4 3.5 3.4 3.5.8 0 1.6-.2 2-.4v-3.4zm5.4.4c.7-.3 1.2-.9 1.2-1.8 0-.6-.2-1-.5-1.3-.4-.4-1.1-.6-2-.6-.6 0-1.2.1-1.7.1v6.8h1v-2.8h.6c.7 0 1.1.4 1.3 1.3.2.8.3 1.4.4 1.6h1.1c-.1-.3-.3-1-.5-1.9-.1-.7-.4-1.2-.9-1.4zm-1.2-.4h-.7v-2.4c.1 0 .4-.1.7-.1.7 0 1.4.3 1.4 1.2 0 .8-.5 1.3-1.4 1.3zm7.5-3.3c-1.8 0-3 1.4-3 3.6 0 2.1 1.1 3.5 2.9 3.5 1.7 0 3-1.2 3-3.6-.1-2-1.1-3.5-2.9-3.5zm-.1 6.3c-1.2 0-1.8-1.3-1.8-2.7 0-1.3.6-2.7 1.8-2.7 1.2 0 1.8 1.3 1.8 2.7 0 1.4-.6 2.7-1.8 2.7zm10.1-6.2h-1v4.2c0 1.4-.5 2-1.4 2-.8 0-1.4-.6-1.4-2v-4.2h-1v4.1c0 2.1 1 2.9 2.4 2.9 1.5 0 2.5-.9 2.5-2.9v-4.1zm4.3 0c-.7 0-1.3.1-1.7.1v6.8h1v-2.7h.6c1.2 0 2.6-.6 2.6-2.2 0-.6-.2-1.2-.6-1.5-.4-.3-1.1-.5-1.9-.5zm-.1 3.4c-.2 0-.4 0-.6-.1v-2.5c.1 0 .4-.1.7-.1.8 0 1.4.4 1.4 1.3s-.5 1.4-1.5 1.4zm10.9-2.6c.5 0 .9.1 1.2.3l.2-.9c-.2-.1-.7-.3-1.5-.3-1.9 0-3.4 1.3-3.4 3.6 0 2.2 1.3 3.5 3.2 3.5.7 0 1.3-.1 1.6-.3l-.2-.8c-.3.1-.8.2-1.2.2-1.4 0-2.3-.9-2.3-2.6.1-1.8 1-2.7 2.4-2.7zm6-.9c-1.8 0-3 1.4-3 3.6 0 2.1 1.1 3.5 2.9 3.5 1.7 0 3-1.2 3-3.6 0-2-1.1-3.5-2.9-3.5zm-.1 6.3c-1.2 0-1.8-1.3-1.8-2.7 0-1.3.6-2.7 1.8-2.7 1.2 0 1.8 1.3 1.8 2.7.1 1.4-.5 2.7-1.8 2.7zm9.3-3.6c0 1.1 0 2 .1 2.9-.3-.7-.7-1.5-1.1-2.3l-1.8-3.2h-1.1v6.9h1v-2.6c0-1.2 0-2.1-.1-3 .3.8.7 1.6 1.1 2.3l1.8 3.2h1.1v-6.8h-1v2.6zm3.6 4.3h1v-3h2.4v-.9h-2.4v-2.1h2.5v-.9h-3.6v6.9zm6.9-3.1h2.4v-.9h-2.4v-2h2.6v-.9h-3.6v6.9h3.7v-.9h-2.7v-2.2zm7.8-.2c.7-.3 1.2-.9 1.2-1.8 0-.6-.2-1-.5-1.3-.4-.4-1.1-.6-2-.6-.6 0-1.2.1-1.7.1v6.8h1v-2.8h.6c.7 0 1.1.4 1.3 1.3.2.8.3 1.4.4 1.6h1.1c-.1-.3-.3-1-.5-1.9-.1-.7-.4-1.2-.9-1.4zm-1.2-.4h-.7v-2.4c.1 0 .4-.1.7-.1.7 0 1.4.3 1.4 1.2 0 .8-.5 1.3-1.4 1.3zm5.9.6h2.4v-.9h-2.4v-2h2.6v-.9h-3.6v6.9h3.7v-.9h-2.7v-2.2zm8.9-1.2c0 1.1 0 2 .1 2.9-.3-.7-.7-1.5-1.1-2.3l-1.8-3.2h-1.1v6.9h1v-2.6c0-1.2 0-2.1-.1-3 .3.8.7 1.6 1.1 2.3l1.8 3.2h1.1v-6.8h-1v2.6zm6.7-1.8c.5 0 .9.1 1.2.3l.2-.9c-.2-.1-.7-.3-1.5-.3-1.9 0-3.4 1.3-3.4 3.6 0 2.2 1.3 3.5 3.2 3.5.7 0 1.3-.1 1.6-.3l-.2-.8c-.3.1-.8.2-1.2.2-1.4 0-2.3-.9-2.3-2.6.1-1.8 1.1-2.7 2.4-2.7zm4.7 3h2.4v-.9h-2.4v-2h2.6v-.9h-3.6v6.9h3.7v-.9h-2.7v-2.2z"/></svg>